# xmcd
#
# Track frame offsets:
#	150
#	41681
#	69954
#	82706
#	107324
#	133021
#	163181
#	172504
#	203625
#	233785
#	275316
#
# Disc length: 3795 seconds
#
# Revision: 1
# Processed by: cddbd v1.4PL0 Copyright (c) Steve Scherf et al.
# Submitted via: audiograbber 1.82.01
#
DISCID=7c0ed10b
DTITLE=Dead Can Dance - Into The Labyrinth
DYEAR=1993
DGENRE=
TTITLE0=Yulunga (spirit dance)
TTITLE1=The Ubiquitous Mr Lovegrove
TTITLE2=The Wind That Shakes The Barley
TTITLE3=The Carnival Is Over
TTITLE4=Ariadne
TTITLE5=Saldek
TTITLE6=Towards The Within
TTITLE7=Tell Me About The Forest
TTITLE8=The Spider's Stratagem
TTITLE9=Emmeleia
TTITLE10=How Fortunate The Man With None
EXTD=
EXTT0=
EXTT1=
EXTT2=
EXTT3=
EXTT4=
EXTT5=
EXTT6=
EXTT7=
EXTT8=
EXTT9=
EXTT10=
PLAYORDER=
